HIERARCHY
ROOT Hips
{
 OFFSET 0.000000 0.000000 0.000000
 CHANNELS 6 Xposition Yposition Zposition Yrotation Xrotation Zrotation
 JOINT Chest
 {
  OFFSET 0.000000 11.395451 -0.039534
  CHANNELS 3 Yrotation Xrotation Zrotation
  JOINT Chest2
  {
   OFFSET 0.000000 9.398669 0.071813
   CHANNELS 3 Yrotation Xrotation Zrotation
   JOINT Chest3
   {
    OFFSET 0.000000 8.489801 0.000000
    CHANNELS 3 Yrotation Xrotation Zrotation
    JOINT Chest4
    {
     OFFSET 0.000000 8.489801 0.000000
     CHANNELS 3 Yrotation Xrotation Zrotation
     JOINT Neck
     {
      OFFSET 0.000000 12.404889 0.000000
      CHANNELS 3 Yrotation Xrotation Zrotation
      JOINT Head
      {
       OFFSET 0.000000 8.903270 0.092239
       CHANNELS 3 Yrotation Xrotation Zrotation
       End Site
       {
        OFFSET 0.000000 17.592497 0.007158
       }
      }
     }
     JOINT RightCollar
     {
      OFFSET -3.196775 6.966722 0.000000
      CHANNELS 3 Yrotation Xrotation Zrotation
      JOINT RightShoulder
      {
       OFFSET -15.955896 0.000000 0.000000
       CHANNELS 3 Yrotation Xrotation Zrotation
       JOINT RightElbow
       {
        OFFSET -24.792472 0.000000 0.000000
        CHANNELS 3 Yrotation Xrotation Zrotation
        JOINT RightWrist
        {
         OFFSET -20.900115 0.000000 0.025002
         CHANNELS 3 Yrotation Xrotation Zrotation
         End Site
         {
          OFFSET -16.056692 0.000000 0.000000
         }
        }
       }
      }
     }
     JOINT LeftCollar
     {
      OFFSET 3.196775 6.966722 0.000000
      CHANNELS 3 Yrotation Xrotation Zrotation
      JOINT LeftShoulder
      {
       OFFSET 15.955896 0.000000 0.000000
       CHANNELS 3 Yrotation Xrotation Zrotation
       JOINT LeftElbow
       {
        OFFSET 24.792472 0.000000 0.000000
        CHANNELS 3 Yrotation Xrotation Zrotation
        JOINT LeftWrist
        {
         OFFSET 20.900115 0.000000 0.025002
         CHANNELS 3 Yrotation Xrotation Zrotation
         End Site
         {
          OFFSET 16.056692 0.000000 0.000000
         }
        }
       }
      }
     }
    }
   }
  }
 }
 JOINT RightHip
 {
  OFFSET -9.568995 0.193718 0.019767
  CHANNELS 3 Yrotation Xrotation Zrotation
  JOINT RightKnee
  {
   OFFSET 0.000000 -56.649296 0.015402
   CHANNELS 3 Yrotation Xrotation Zrotation
   JOINT RightAnkle
   {
    OFFSET 0.000000 -41.365147 0.021264
    CHANNELS 3 Yrotation Xrotation Zrotation
    JOINT RightToe
    {
     OFFSET 0.000000 -7.465940 17.672538
     CHANNELS 3 Yrotation Xrotation Zrotation
     End Site
     {
      OFFSET 0.000000 -1.736315 7.837145
     }
    }
   }
  }
 }
 JOINT LeftHip
 {
  OFFSET 9.568995 0.193718 0.019767
  CHANNELS 3 Yrotation Xrotation Zrotation
  JOINT LeftKnee
  {
   OFFSET 0.000000 -56.649296 0.015402
   CHANNELS 3 Yrotation Xrotation Zrotation
   JOINT LeftAnkle
   {
    OFFSET 0.000000 -41.365147 0.021264
    CHANNELS 3 Yrotation Xrotation Zrotation
    JOINT LeftToe
    {
     OFFSET 0.000000 -7.465940 17.672538
     CHANNELS 3 Yrotation Xrotation Zrotation
     End Site
     {
      OFFSET 0.000000 -1.736315 7.837145
     }
    }
   }
  }
 }
}
MOTION
Frames: 11
Frame Time: 0.016667
42.874608 104.943765 172.252380 63.435889 1.081649 -3.914331 -5.904716 5.153049 1.290495 -2.635933 2.273714 0.638567 -2.635933 2.273714 0.638567 -1.979069 1.702572 0.488684 -7.331649 14.857221 4.044776 -15.235657 -7.673022 10.304463 -2.024312 3.160317 5.198392 2.014320 -14.476457 51.757496 54.691918 -47.959042 30.329031 -16.788727 -15.777025 10.004248 5.698267 3.754964 -5.931297 5.038959 -18.995413 -45.357669 -32.121548 -59.393237 -64.079782 25.434328 -12.513112 1.071482 -17.163799 -9.836310 10.266519 -5.706212 14.742910 -2.022445 -9.066777 -8.383365 -0.960457 0.000000 0.000000 0.000000 32.399888 -12.763674 17.356239 7.932785 24.618079 3.493771 8.791526 -18.068902 3.846175 0.000000 0.000000 0.000000
43.227265 104.904791 173.183115 61.194647 0.477752 -3.587262 -5.788714 5.136950 1.143915 -2.582770 2.268701 0.572006 -2.582765 2.268692 0.572006 -1.938943 1.699134 0.438549 -7.143608 15.059874 3.918124 -14.810527 -7.350083 9.969950 -1.873535 3.040246 5.189359 2.332339 -14.565635 51.759524 54.801360 -47.720930 30.179924 -16.880300 -15.787045 9.930991 5.724136 3.792373 -5.950522 5.379958 -18.900860 -45.381879 -31.726369 -59.476490 -64.202808 25.438100 -12.555301 0.999532 -16.300172 -9.259041 10.289583 -5.410445 15.453402 -2.288671 -7.915673 -8.967656 -0.862727 0.000000 0.000000 0.000000 30.964519 -11.867529 17.284477 4.860637 26.025397 2.953219 7.708931 -18.333038 4.207539 0.000000 0.000000 -0.000000
43.582586 104.873931 174.081450 58.853957 -0.087129 -3.242892 -5.654923 5.111248 1.005628 -2.521791 2.259317 0.508822 -2.521775 2.259320 0.508820 -1.892959 1.692427 0.390897 -6.951082 15.213726 3.768256 -14.376778 -7.119302 9.599610 -1.732102 2.882686 5.160395 2.723237 -14.638194 51.801662 54.940611 -47.465858 30.023401 -16.974663 -15.812810 9.836394 5.807113 3.847703 -5.973445 5.822332 -18.873513 -45.415692 -31.360318 -59.521296 -64.362616 25.473661 -12.605533 0.889736 -15.066430 -8.678227 10.222373 -5.447693 15.959343 -2.511851 -6.671081 -9.430719 -0.773038 0.000000 0.000000 0.000000 29.265800 -10.948422 17.089465 1.748610 27.539582 2.050361 7.101735 -18.689621 3.806900 0.000000 -0.000000 0.000000
43.927960 104.863623 174.950622 56.463266 -0.576868 -2.928537 -5.490483 5.064792 0.914345 -2.447752 2.240105 0.465935 -2.447752 2.240105 0.465935 -1.837290 1.678246 0.358390 -6.775165 15.356412 3.597393 -13.969044 -6.907942 9.199030 -1.596351 2.677596 5.152487 3.143655 -14.622175 51.786266 55.073470 -47.270746 29.831664 -17.076534 -15.849848 9.711644 5.884634 3.884966 -6.008860 6.271650 -18.831864 -45.471653 -31.059829 -59.515213 -64.508452 25.476717 -12.657553 0.803523 -13.677640 -8.107678 10.140712 -5.437349 16.316884 -2.618566 -5.563104 -9.790759 -0.695443 0.000000 0.000000 0.000000 27.133696 -10.045421 16.810326 -0.532505 28.989843 1.155582 6.729426 -18.939564 3.357609 0.000000 0.000000 0.000000
44.265325 104.884155 175.793038 54.038972 -0.982448 -2.666991 -5.291277 4.987907 0.889640 -2.359004 2.206606 0.451935 -2.359032 2.206599 0.451945 -1.770707 1.653231 0.347452 -6.621400 15.500339 3.386927 -13.589352 -6.695580 8.733634 -1.461854 2.391035 5.187978 3.610078 -14.436983 51.651581 55.197852 -47.175964 29.570025 -17.190956 -15.904934 9.532688 5.941472 3.893702 -6.067316 6.722773 -18.760710 -45.562966 -30.816488 -59.418917 -64.651229 25.415526 -12.711369 0.772785 -12.116770 -7.541961 10.048406 -5.259192 16.503122 -2.536426 -4.735752 -10.035372 -0.634817 0.000000 0.000000 0.000000 24.286473 -9.091756 16.466769 -1.521922 30.366173 0.440962 6.623074 -18.877108 2.949608 0.000000 0.000000 0.000000
44.592745 104.925238 176.606291 51.566638 -1.318112 -2.443558 -5.062207 4.896246 0.914323 -2.257457 2.166066 0.459452 -2.257482 2.166068 0.459465 -1.694556 1.622882 0.352577 -6.484046 15.630926 3.155690 -13.235397 -6.506491 8.238284 -1.331422 2.059568 5.249518 4.105965 -14.166308 51.454237 55.315915 -47.139123 29.269239 -17.310918 -15.968672 9.321540 5.994007 3.882804 -6.136412 7.180908 -18.676655 -45.677279 -30.635599 -59.270471 -64.782078 25.322754 -12.766495 0.767558 -10.399158 -6.989641 9.944673 -5.025534 16.547848 -2.326814 -4.047887 -10.177828 -0.575114 0.000000 0.000000 0.000000 21.005304 -8.178556 16.009992 -1.627132 31.699221 -0.163403 6.757159 -18.691597 2.417249 -0.000000 -0.000000 0.000000
44.891798 104.968446 177.386399 49.050327 -1.585828 -2.252271 -4.804376 4.818056 0.970680 -2.143423 2.131240 0.480933 -2.143423 2.131240 0.480933 -1.609061 1.596768 0.368141 -6.369127 15.747190 2.959868 -12.938417 -6.333619 7.819370 -1.214190 1.779728 5.314039 4.542275 -13.988363 51.271546 55.398251 -47.112191 28.997004 -17.423690 -16.013913 9.139632 6.027470 3.845065 -6.189510 7.567125 -18.548549 -45.795336 -30.575201 -59.172725 -64.818775 25.231380 -12.815836 0.757150 -8.784984 -6.488534 9.888651 -4.707388 16.589012 -2.121269 -3.301494 -10.275661 -0.489990 0.000000 -0.000000 0.000000 17.958343 -7.574251 15.440053 -1.227849 32.961747 -0.548112 6.811601 -18.612114 2.082879 0.000000 0.000000 0.000000
45.150313 105.008292 178.128139 46.487407 -1.793005 -2.105705 -4.505536 4.772966 1.060071 -2.011547 2.110928 0.517074 -2.011527 2.110911 0.517068 -1.510250 1.581496 0.394710 -6.281338 15.839288 2.815831 -12.713836 -6.193816 7.509828 -1.117692 1.597037 5.358989 4.871781 -13.997133 51.128889 55.415101 -47.086414 28.786726 -17.524691 -16.030896 9.013857 6.034544 3.772361 -6.215264 7.813832 -18.368753 -45.922123 -30.713489 -59.169275 -64.676244 25.169889 -12.855369 0.721214 -7.356737 -6.050965 9.902405 -4.295504 16.675257 -1.956294 -2.417161 -10.339717 -0.362180 -0.000000 -0.000000 0.000000 15.269264 -7.369634 14.846129 -0.112585 34.243210 -0.537098 6.661564 -18.711763 2.146646 0.000000 -0.000000 0.000000
45.380463 105.050263 178.836735 43.881696 -1.937482 -1.998906 -4.178502 4.744327 1.178231 -1.867495 2.097894 0.565938 -1.867477 2.097878 0.565940 -1.402385 1.571690 0.430827 -6.216082 15.919355 2.707670 -12.545517 -6.068410 7.276494 -1.036382 1.464494 5.400195 5.145065 -14.100688 51.003358 55.396040 -47.069762 28.603074 -17.619537 -16.031895 8.918728 6.023126 3.673941 -6.222802 7.988356 -18.148979 -46.059582 -30.980022 -59.210835 -64.428215 25.109362 -12.888938 0.679894 -6.028475 -5.667528 9.958034 -3.799741 16.757616 -1.796238 -1.474688 -10.358085 -0.208726 0.000000 -0.000000 0.000000 12.806921 -7.471438 14.248205 1.573367 35.502933 -0.181266 6.431456 -18.854109 2.433212 0.000000 0.000000 -0.000000
45.600338 105.092397 179.523870 41.246714 -2.004529 -1.900690 -3.861667 4.703658 1.298698 -1.727981 2.079666 0.615860 -1.727981 2.079666 0.615860 -1.297941 1.558025 0.467731 -6.166820 16.021462 2.641255 -12.419416 -5.894255 7.123586 -0.960820 1.340107 5.469936 5.420354 -14.196856 50.899640 55.400880 -47.040871 28.412360 -17.711857 -16.024186 8.838130 6.000641 3.569493 -6.216793 8.213677 -17.884553 -46.185518 -31.211517 -59.263601 -64.230476 24.996747 -12.920803 0.663802 -4.807327 -5.342074 10.035594 -3.221332 16.826237 -1.666945 -0.513823 -10.353542 -0.057830 0.000000 0.000000 -0.000000 10.854763 -7.865504 13.593617 2.882408 36.541709 0.244236 6.178228 -18.942882 2.721631 0.000000 -0.000000 0.000000
45.808941 105.133347 180.190118 38.577188 -1.969621 -1.802130 -3.559176 4.632573 1.409590 -1.594639 2.048062 0.661490 -1.594658 2.048052 0.661483 -1.198097 1.534320 0.501406 -6.131958 16.161529 2.626142 -12.334579 -5.641330 7.066531 -0.886177 1.221990 5.585287 5.715541 -14.250943 50.820822 55.467099 -47.004639 28.181466 -17.804640 -16.011074 8.773679 5.977421 3.483685 -6.187942 8.502287 -17.590667 -46.289524 -31.345377 -59.317711 -64.153941 24.793614 -12.959621 0.704215 -3.695240 -5.099639 10.136233 -2.544228 16.879842 -1.589225 0.441380 -10.329464 0.088119 0.000000 0.000000 -0.000000 9.539900 -8.610672 12.894047 3.538336 37.348868 0.667191 5.926870 -18.947381 2.929050 -0.000000 0.000000 0.000000
